<svg xmlns="http://www.w3.org/2000/svg" width="2200" height="1550" viewBox="0 0 2200 1550"><rect width="100%" height="100%" fill="#0b1220"/><text x="40" y="62" fill="#e2e8f0" font-size="48" font-family="Segoe UI, Arial">GestureFlow Recognized Gestures (Visual Cheat Sheet)</text><text x="40" y="98" fill="#93c5fd" font-size="22" font-family="Segoe UI, Arial">Legend: Green=Finger Up, Red=Finger Down, Yellow ring=Thumb-Index pinch/OK.</text><rect x="40" y="130" width="512" height="330" rx="18" fill="#0f172a" stroke="#334155" stroke-width="2"/><text x="58" y="172" fill="#f8fafc" font-size="30" font-family="Segoe UI, Arial">PiP Toggle (LEFT OK)</text><text x="58" y="202" fill="#cbd5e1" font-size="18" font-family="Segoe UI, Arial">Hold 1.0s</text><rect x="100" y="290" width="120" height="130" rx="18" fill="#dbeafe" stroke="#94a3b8" stroke-width="2"/><rect x="142" y="420" width="36" height="30" rx="8" fill="#bfdbfe" stroke="#94a3b8" stroke-width="2"/><rect x="114" y="316" width="16" height="42" rx="7" fill="#e2e8f0" stroke="#94a3b8" stroke-width="2"/><circle cx="122" cy="304" r="6" fill="#ef4444"/><rect x="142" y="228" width="16" height="76" rx="7" fill="#e2e8f0" stroke="#94a3b8" stroke-width="2"/><circle cx="150" cy="216" r="6" fill="#22c55e"/><rect x="170" y="228" width="16" height="76" rx="7" fill="#e2e8f0" stroke="#94a3b8" stroke-width="2"/><circle cx="178" cy="216" r="6" fill="#22c55e"/><rect x="198" y="228" width="16" height="76" rx="7" fill="#e2e8f0" stroke="#94a3b8" stroke-width="2"/><circle cx="206" cy="216" r="6" fill="#22c55e"/><ellipse cx="88" cy="346" rx="16" ry="12" fill="#dbeafe" stroke="#94a3b8" stroke-width="2"/><circle cx="122" cy="240" r="10" fill="none" stroke="#fde047" stroke-width="4"/><line x1="88" y1="346" x2="122" y2="240" stroke="#fde047" stroke-width="3" stroke-dasharray="5,4"/><rect x="576" y="130" width="512" height="330" rx="18" fill="#0f172a" stroke="#334155" stroke-width="2"/><text x="594" y="172" fill="#f8fafc" font-size="30" font-family="Segoe UI, Arial">Mouse Lock (LEFT Pinky)</text><text x="594" y="202" fill="#cbd5e1" font-size="18" font-family="Segoe UI, Arial">Hold 0.7s</text><rect x="636" y="290" width="120" height="130" rx="18" fill="#dbeafe" stroke="#94a3b8" stroke-width="2"/><rect x="678" y="420" width="36" height="30" rx="8" fill="#bfdbfe" stroke="#94a3b8" stroke-width="2"/><rect x="650" y="316" width="16" height="42" rx="7" fill="#e2e8f0" stroke="#94a3b8" stroke-width="2"/><circle cx="658" cy="304" r="6" fill="#ef4444"/><rect x="678" y="316" width="16" height="42" rx="7" fill="#e2e8f0" stroke="#94a3b8" stroke-width="2"/><circle cx="686" cy="304" r="6" fill="#ef4444"/><rect x="706" y="316" width="16" height="42" rx="7" fill="#e2e8f0" stroke="#94a3b8" stroke-width="2"/><circle cx="714" cy="304" r="6" fill="#ef4444"/><rect x="734" y="228" width="16" height="76" rx="7" fill="#e2e8f0" stroke="#94a3b8" stroke-width="2"/><circle cx="742" cy="216" r="6" fill="#22c55e"/><ellipse cx="624" cy="346" rx="16" ry="12" fill="#dbeafe" stroke="#94a3b8" stroke-width="2"/><rect x="1112" y="130" width="512" height="330" rx="18" fill="#0f172a" stroke="#334155" stroke-width="2"/><text x="1130" y="172" fill="#f8fafc" font-size="30" font-family="Segoe UI, Arial">System Lock (RIGHT Pinky)</text><text x="1130" y="202" fill="#cbd5e1" font-size="18" font-family="Segoe UI, Arial">Hold 1.0s</text><rect x="1172" y="290" width="120" height="130" rx="18" fill="#dbeafe" stroke="#94a3b8" stroke-width="2"/><rect x="1214" y="420" width="36" height="30" rx="8" fill="#bfdbfe" stroke="#94a3b8" stroke-width="2"/><rect x="1186" y="316" width="16" height="42" rx="7" fill="#e2e8f0" stroke="#94a3b8" stroke-width="2"/><circle cx="1194" cy="304" r="6" fill="#ef4444"/><rect x="1214" y="316" width="16" height="42" rx="7" fill="#e2e8f0" stroke="#94a3b8" stroke-width="2"/><circle cx="1222" cy="304" r="6" fill="#ef4444"/><rect x="1242" y="316" width="16" height="42" rx="7" fill="#e2e8f0" stroke="#94a3b8" stroke-width="2"/><circle cx="1250" cy="304" r="6" fill="#ef4444"/><rect x="1270" y="228" width="16" height="76" rx="7" fill="#e2e8f0" stroke="#94a3b8" stroke-width="2"/><circle cx="1278" cy="216" r="6" fill="#22c55e"/><ellipse cx="1304" cy="346" rx="16" ry="12" fill="#dbeafe" stroke="#94a3b8" stroke-width="2"/><rect x="1648" y="130" width="512" height="330" rx="18" fill="#0f172a" stroke="#334155" stroke-width="2"/><text x="1666" y="172" fill="#f8fafc" font-size="30" font-family="Segoe UI, Arial">Volume Toggle</text><text x="1666" y="202" fill="#cbd5e1" font-size="18" font-family="Segoe UI, Arial">RIGHT index+pinky, hold 1.0s</text><rect x="1708" y="290" width="120" height="130" rx="18" fill="#dbeafe" stroke="#94a3b8" stroke-width="2"/><rect x="1750" y="420" width="36" height="30" rx="8" fill="#bfdbfe" stroke="#94a3b8" stroke-width="2"/><rect x="1722" y="228" width="16" height="76" rx="7" fill="#e2e8f0" stroke="#94a3b8" stroke-width="2"/><circle cx="1730" cy="216" r="6" fill="#22c55e"/><rect x="1750" y="316" width="16" height="42" rx="7" fill="#e2e8f0" stroke="#94a3b8" stroke-width="2"/><circle cx="1758" cy="304" r="6" fill="#ef4444"/><rect x="1778" y="316" width="16" height="42" rx="7" fill="#e2e8f0" stroke="#94a3b8" stroke-width="2"/><circle cx="1786" cy="304" r="6" fill="#ef4444"/><rect x="1806" y="228" width="16" height="76" rx="7" fill="#e2e8f0" stroke="#94a3b8" stroke-width="2"/><circle cx="1814" cy="216" r="6" fill="#22c55e"/><ellipse cx="1840" cy="346" rx="16" ry="12" fill="#dbeafe" stroke="#94a3b8" stroke-width="2"/><rect x="40" y="484" width="512" height="330" rx="18" fill="#0f172a" stroke="#334155" stroke-width="2"/><text x="58" y="526" fill="#f8fafc" font-size="30" font-family="Segoe UI, Arial">Volume Control</text><text x="58" y="556" fill="#cbd5e1" font-size="18" font-family="Segoe UI, Arial">LEFT pinch: close=down, open=up</text><rect x="100" y="644" width="120" height="130" rx="18" fill="#dbeafe" stroke="#94a3b8" stroke-width="2"/><rect x="142" y="774" width="36" height="30" rx="8" fill="#bfdbfe" stroke="#94a3b8" stroke-width="2"/><rect x="114" y="582" width="16" height="76" rx="7" fill="#e2e8f0" stroke="#94a3b8" stroke-width="2"/><circle cx="122" cy="570" r="6" fill="#22c55e"/><rect x="142" y="582" width="16" height="76" rx="7" fill="#e2e8f0" stroke="#94a3b8" stroke-width="2"/><circle cx="150" cy="570" r="6" fill="#22c55e"/><rect x="170" y="582" width="16" height="76" rx="7" fill="#e2e8f0" stroke="#94a3b8" stroke-width="2"/><circle cx="178" cy="570" r="6" fill="#22c55e"/><rect x="198" y="582" width="16" height="76" rx="7" fill="#e2e8f0" stroke="#94a3b8" stroke-width="2"/><circle cx="206" cy="570" r="6" fill="#22c55e"/><ellipse cx="88" cy="700" rx="16" ry="12" fill="#dbeafe" stroke="#94a3b8" stroke-width="2"/><circle cx="122" cy="594" r="10" fill="none" stroke="#fde047" stroke-width="4"/><line x1="88" y1="700" x2="122" y2="594" stroke="#fde047" stroke-width="3" stroke-dasharray="5,4"/><rect x="576" y="484" width="512" height="330" rx="18" fill="#0f172a" stroke="#334155" stroke-width="2"/><text x="594" y="526" fill="#f8fafc" font-size="30" font-family="Segoe UI, Arial">Volume Hold</text><text x="594" y="556" fill="#cbd5e1" font-size="18" font-family="Segoe UI, Arial">RIGHT open palm pauses changes</text><rect x="636" y="644" width="120" height="130" rx="18" fill="#dbeafe" stroke="#94a3b8" stroke-width="2"/><rect x="678" y="774" width="36" height="30" rx="8" fill="#bfdbfe" stroke="#94a3b8" stroke-width="2"/><rect x="650" y="582" width="16" height="76" rx="7" fill="#e2e8f0" stroke="#94a3b8" stroke-width="2"/><circle cx="658" cy="570" r="6" fill="#22c55e"/><rect x="678" y="582" width="16" height="76" rx="7" fill="#e2e8f0" stroke="#94a3b8" stroke-width="2"/><circle cx="686" cy="570" r="6" fill="#22c55e"/><rect x="706" y="582" width="16" height="76" rx="7" fill="#e2e8f0" stroke="#94a3b8" stroke-width="2"/><circle cx="714" cy="570" r="6" fill="#22c55e"/><rect x="734" y="582" width="16" height="76" rx="7" fill="#e2e8f0" stroke="#94a3b8" stroke-width="2"/><circle cx="742" cy="570" r="6" fill="#22c55e"/><ellipse cx="768" cy="700" rx="16" ry="12" fill="#dbeafe" stroke="#94a3b8" stroke-width="2"/><rect x="1112" y="484" width="512" height="330" rx="18" fill="#0f172a" stroke="#334155" stroke-width="2"/><text x="1130" y="526" fill="#f8fafc" font-size="30" font-family="Segoe UI, Arial">Zoom Enter</text><text x="1130" y="556" fill="#cbd5e1" font-size="18" font-family="Segoe UI, Arial">Both open palms, hold 1.0s</text><rect x="1148" y="644" width="120" height="130" rx="18" fill="#dbeafe" stroke="#94a3b8" stroke-width="2"/><rect x="1190" y="774" width="36" height="30" rx="8" fill="#bfdbfe" stroke="#94a3b8" stroke-width="2"/><rect x="1162" y="582" width="16" height="76" rx="7" fill="#e2e8f0" stroke="#94a3b8" stroke-width="2"/><circle cx="1170" cy="570" r="6" fill="#22c55e"/><rect x="1190" y="582" width="16" height="76" rx="7" fill="#e2e8f0" stroke="#94a3b8" stroke-width="2"/><circle cx="1198" cy="570" r="6" fill="#22c55e"/><rect x="1218" y="582" width="16" height="76" rx="7" fill="#e2e8f0" stroke="#94a3b8" stroke-width="2"/><circle cx="1226" cy="570" r="6" fill="#22c55e"/><rect x="1246" y="582" width="16" height="76" rx="7" fill="#e2e8f0" stroke="#94a3b8" stroke-width="2"/><circle cx="1254" cy="570" r="6" fill="#22c55e"/><ellipse cx="1136" cy="700" rx="16" ry="12" fill="#dbeafe" stroke="#94a3b8" stroke-width="2"/><rect x="1302" y="644" width="120" height="130" rx="18" fill="#dbeafe" stroke="#94a3b8" stroke-width="2"/><rect x="1344" y="774" width="36" height="30" rx="8" fill="#bfdbfe" stroke="#94a3b8" stroke-width="2"/><rect x="1316" y="582" width="16" height="76" rx="7" fill="#e2e8f0" stroke="#94a3b8" stroke-width="2"/><circle cx="1324" cy="570" r="6" fill="#22c55e"/><rect x="1344" y="582" width="16" height="76" rx="7" fill="#e2e8f0" stroke="#94a3b8" stroke-width="2"/><circle cx="1352" cy="570" r="6" fill="#22c55e"/><rect x="1372" y="582" width="16" height="76" rx="7" fill="#e2e8f0" stroke="#94a3b8" stroke-width="2"/><circle cx="1380" cy="570" r="6" fill="#22c55e"/><rect x="1400" y="582" width="16" height="76" rx="7" fill="#e2e8f0" stroke="#94a3b8" stroke-width="2"/><circle cx="1408" cy="570" r="6" fill="#22c55e"/><ellipse cx="1434" cy="700" rx="16" ry="12" fill="#dbeafe" stroke="#94a3b8" stroke-width="2"/><rect x="1648" y="484" width="512" height="330" rx="18" fill="#0f172a" stroke="#334155" stroke-width="2"/><text x="1666" y="526" fill="#f8fafc" font-size="30" font-family="Segoe UI, Arial">Zoom Exit</text><text x="1666" y="556" fill="#cbd5e1" font-size="18" font-family="Segoe UI, Arial">Both fists, hold 1.0s</text><rect x="1684" y="644" width="120" height="130" rx="18" fill="#dbeafe" stroke="#94a3b8" stroke-width="2"/><rect x="1726" y="774" width="36" height="30" rx="8" fill="#bfdbfe" stroke="#94a3b8" stroke-width="2"/><rect x="1698" y="670" width="16" height="42" rx="7" fill="#e2e8f0" stroke="#94a3b8" stroke-width="2"/><circle cx="1706" cy="658" r="6" fill="#ef4444"/><rect x="1726" y="670" width="16" height="42" rx="7" fill="#e2e8f0" stroke="#94a3b8" stroke-width="2"/><circle cx="1734" cy="658" r="6" fill="#ef4444"/><rect x="1754" y="670" width="16" height="42" rx="7" fill="#e2e8f0" stroke="#94a3b8" stroke-width="2"/><circle cx="1762" cy="658" r="6" fill="#ef4444"/><rect x="1782" y="670" width="16" height="42" rx="7" fill="#e2e8f0" stroke="#94a3b8" stroke-width="2"/><circle cx="1790" cy="658" r="6" fill="#ef4444"/><ellipse cx="1672" cy="700" rx="16" ry="12" fill="#dbeafe" stroke="#94a3b8" stroke-width="2"/><rect x="1838" y="644" width="120" height="130" rx="18" fill="#dbeafe" stroke="#94a3b8" stroke-width="2"/><rect x="1880" y="774" width="36" height="30" rx="8" fill="#bfdbfe" stroke="#94a3b8" stroke-width="2"/><rect x="1852" y="670" width="16" height="42" rx="7" fill="#e2e8f0" stroke="#94a3b8" stroke-width="2"/><circle cx="1860" cy="658" r="6" fill="#ef4444"/><rect x="1880" y="670" width="16" height="42" rx="7" fill="#e2e8f0" stroke="#94a3b8" stroke-width="2"/><circle cx="1888" cy="658" r="6" fill="#ef4444"/><rect x="1908" y="670" width="16" height="42" rx="7" fill="#e2e8f0" stroke="#94a3b8" stroke-width="2"/><circle cx="1916" cy="658" r="6" fill="#ef4444"/><rect x="1936" y="670" width="16" height="42" rx="7" fill="#e2e8f0" stroke="#94a3b8" stroke-width="2"/><circle cx="1944" cy="658" r="6" fill="#ef4444"/><ellipse cx="1970" cy="700" rx="16" ry="12" fill="#dbeafe" stroke="#94a3b8" stroke-width="2"/><rect x="40" y="838" width="512" height="330" rx="18" fill="#0f172a" stroke="#334155" stroke-width="2"/><text x="58" y="880" fill="#f8fafc" font-size="30" font-family="Segoe UI, Arial">Scroll</text><text x="58" y="910" fill="#cbd5e1" font-size="18" font-family="Segoe UI, Arial">RIGHT pinch + move up/down</text><rect x="100" y="998" width="120" height="130" rx="18" fill="#dbeafe" stroke="#94a3b8" stroke-width="2"/><rect x="142" y="1128" width="36" height="30" rx="8" fill="#bfdbfe" stroke="#94a3b8" stroke-width="2"/><rect x="114" y="936" width="16" height="76" rx="7" fill="#e2e8f0" stroke="#94a3b8" stroke-width="2"/><circle cx="122" cy="924" r="6" fill="#22c55e"/><rect x="142" y="936" width="16" height="76" rx="7" fill="#e2e8f0" stroke="#94a3b8" stroke-width="2"/><circle cx="150" cy="924" r="6" fill="#22c55e"/><rect x="170" y="936" width="16" height="76" rx="7" fill="#e2e8f0" stroke="#94a3b8" stroke-width="2"/><circle cx="178" cy="924" r="6" fill="#22c55e"/><rect x="198" y="936" width="16" height="76" rx="7" fill="#e2e8f0" stroke="#94a3b8" stroke-width="2"/><circle cx="206" cy="924" r="6" fill="#22c55e"/><ellipse cx="232" cy="1054" rx="16" ry="12" fill="#dbeafe" stroke="#94a3b8" stroke-width="2"/><circle cx="122" cy="948" r="10" fill="none" stroke="#fde047" stroke-width="4"/><line x1="232" y1="1054" x2="122" y2="948" stroke="#fde047" stroke-width="3" stroke-dasharray="5,4"/><rect x="576" y="838" width="512" height="330" rx="18" fill="#0f172a" stroke="#334155" stroke-width="2"/><text x="594" y="880" fill="#f8fafc" font-size="30" font-family="Segoe UI, Arial">Alt+Tab Start</text><text x="594" y="910" fill="#cbd5e1" font-size="18" font-family="Segoe UI, Arial">RIGHT fist + LEFT index+middle up</text><rect x="612" y="998" width="120" height="130" rx="18" fill="#dbeafe" stroke="#94a3b8" stroke-width="2"/><rect x="654" y="1128" width="36" height="30" rx="8" fill="#bfdbfe" stroke="#94a3b8" stroke-width="2"/><rect x="626" y="936" width="16" height="76" rx="7" fill="#e2e8f0" stroke="#94a3b8" stroke-width="2"/><circle cx="634" cy="924" r="6" fill="#22c55e"/><rect x="654" y="936" width="16" height="76" rx="7" fill="#e2e8f0" stroke="#94a3b8" stroke-width="2"/><circle cx="662" cy="924" r="6" fill="#22c55e"/><rect x="682" y="1024" width="16" height="42" rx="7" fill="#e2e8f0" stroke="#94a3b8" stroke-width="2"/><circle cx="690" cy="1012" r="6" fill="#ef4444"/><rect x="710" y="1024" width="16" height="42" rx="7" fill="#e2e8f0" stroke="#94a3b8" stroke-width="2"/><circle cx="718" cy="1012" r="6" fill="#ef4444"/><ellipse cx="600" cy="1054" rx="16" ry="12" fill="#dbeafe" stroke="#94a3b8" stroke-width="2"/><rect x="766" y="998" width="120" height="130" rx="18" fill="#dbeafe" stroke="#94a3b8" stroke-width="2"/><rect x="808" y="1128" width="36" height="30" rx="8" fill="#bfdbfe" stroke="#94a3b8" stroke-width="2"/><rect x="780" y="1024" width="16" height="42" rx="7" fill="#e2e8f0" stroke="#94a3b8" stroke-width="2"/><circle cx="788" cy="1012" r="6" fill="#ef4444"/><rect x="808" y="1024" width="16" height="42" rx="7" fill="#e2e8f0" stroke="#94a3b8" stroke-width="2"/><circle cx="816" cy="1012" r="6" fill="#ef4444"/><rect x="836" y="1024" width="16" height="42" rx="7" fill="#e2e8f0" stroke="#94a3b8" stroke-width="2"/><circle cx="844" cy="1012" r="6" fill="#ef4444"/><rect x="864" y="1024" width="16" height="42" rx="7" fill="#e2e8f0" stroke="#94a3b8" stroke-width="2"/><circle cx="872" cy="1012" r="6" fill="#ef4444"/><ellipse cx="898" cy="1054" rx="16" ry="12" fill="#dbeafe" stroke="#94a3b8" stroke-width="2"/><rect x="1112" y="838" width="512" height="330" rx="18" fill="#0f172a" stroke="#334155" stroke-width="2"/><text x="1130" y="880" fill="#f8fafc" font-size="30" font-family="Segoe UI, Arial">Alt+Tab Navigate</text><text x="1130" y="910" fill="#cbd5e1" font-size="18" font-family="Segoe UI, Arial">Hold RIGHT fist, LEFT index-only/middle-only</text><rect x="1132" y="998" width="120" height="130" rx="18" fill="#dbeafe" stroke="#94a3b8" stroke-width="2"/><rect x="1174" y="1128" width="36" height="30" rx="8" fill="#bfdbfe" stroke="#94a3b8" stroke-width="2"/><rect x="1146" y="936" width="16" height="76" rx="7" fill="#e2e8f0" stroke="#94a3b8" stroke-width="2"/><circle cx="1154" cy="924" r="6" fill="#22c55e"/><rect x="1174" y="1024" width="16" height="42" rx="7" fill="#e2e8f0" stroke="#94a3b8" stroke-width="2"/><circle cx="1182" cy="1012" r="6" fill="#ef4444"/><rect x="1202" y="1024" width="16" height="42" rx="7" fill="#e2e8f0" stroke="#94a3b8" stroke-width="2"/><circle cx="1210" cy="1012" r="6" fill="#ef4444"/><rect x="1230" y="1024" width="16" height="42" rx="7" fill="#e2e8f0" stroke="#94a3b8" stroke-width="2"/><circle cx="1238" cy="1012" r="6" fill="#ef4444"/><ellipse cx="1120" cy="1054" rx="16" ry="12" fill="#dbeafe" stroke="#94a3b8" stroke-width="2"/><rect x="1252" y="998" width="120" height="130" rx="18" fill="#dbeafe" stroke="#94a3b8" stroke-width="2"/><rect x="1294" y="1128" width="36" height="30" rx="8" fill="#bfdbfe" stroke="#94a3b8" stroke-width="2"/><rect x="1266" y="1024" width="16" height="42" rx="7" fill="#e2e8f0" stroke="#94a3b8" stroke-width="2"/><circle cx="1274" cy="1012" r="6" fill="#ef4444"/><rect x="1294" y="936" width="16" height="76" rx="7" fill="#e2e8f0" stroke="#94a3b8" stroke-width="2"/><circle cx="1302" cy="924" r="6" fill="#22c55e"/><rect x="1322" y="1024" width="16" height="42" rx="7" fill="#e2e8f0" stroke="#94a3b8" stroke-width="2"/><circle cx="1330" cy="1012" r="6" fill="#ef4444"/><rect x="1350" y="1024" width="16" height="42" rx="7" fill="#e2e8f0" stroke="#94a3b8" stroke-width="2"/><circle cx="1358" cy="1012" r="6" fill="#ef4444"/><ellipse cx="1240" cy="1054" rx="16" ry="12" fill="#dbeafe" stroke="#94a3b8" stroke-width="2"/><rect x="1372" y="998" width="120" height="130" rx="18" fill="#dbeafe" stroke="#94a3b8" stroke-width="2"/><rect x="1414" y="1128" width="36" height="30" rx="8" fill="#bfdbfe" stroke="#94a3b8" stroke-width="2"/><rect x="1386" y="1024" width="16" height="42" rx="7" fill="#e2e8f0" stroke="#94a3b8" stroke-width="2"/><circle cx="1394" cy="1012" r="6" fill="#ef4444"/><rect x="1414" y="1024" width="16" height="42" rx="7" fill="#e2e8f0" stroke="#94a3b8" stroke-width="2"/><circle cx="1422" cy="1012" r="6" fill="#ef4444"/><rect x="1442" y="1024" width="16" height="42" rx="7" fill="#e2e8f0" stroke="#94a3b8" stroke-width="2"/><circle cx="1450" cy="1012" r="6" fill="#ef4444"/><rect x="1470" y="1024" width="16" height="42" rx="7" fill="#e2e8f0" stroke="#94a3b8" stroke-width="2"/><circle cx="1478" cy="1012" r="6" fill="#ef4444"/><ellipse cx="1504" cy="1054" rx="16" ry="12" fill="#dbeafe" stroke="#94a3b8" stroke-width="2"/><rect x="1648" y="838" width="512" height="330" rx="18" fill="#0f172a" stroke="#334155" stroke-width="2"/><text x="1666" y="880" fill="#f8fafc" font-size="30" font-family="Segoe UI, Arial">Swipes</text><text x="1666" y="910" fill="#cbd5e1" font-size="18" font-family="Segoe UI, Arial">SwipeLeft=RIGHT pose, SwipeRight=LEFT pose</text><rect x="1678" y="998" width="120" height="130" rx="18" fill="#dbeafe" stroke="#94a3b8" stroke-width="2"/><rect x="1720" y="1128" width="36" height="30" rx="8" fill="#bfdbfe" stroke="#94a3b8" stroke-width="2"/><rect x="1692" y="936" width="16" height="76" rx="7" fill="#e2e8f0" stroke="#94a3b8" stroke-width="2"/><circle cx="1700" cy="924" r="6" fill="#22c55e"/><rect x="1720" y="936" width="16" height="76" rx="7" fill="#e2e8f0" stroke="#94a3b8" stroke-width="2"/><circle cx="1728" cy="924" r="6" fill="#22c55e"/><rect x="1748" y="936" width="16" height="76" rx="7" fill="#e2e8f0" stroke="#94a3b8" stroke-width="2"/><circle cx="1756" cy="924" r="6" fill="#22c55e"/><rect x="1776" y="936" width="16" height="76" rx="7" fill="#e2e8f0" stroke="#94a3b8" stroke-width="2"/><circle cx="1784" cy="924" r="6" fill="#22c55e"/><ellipse cx="1810" cy="1054" rx="16" ry="12" fill="#dbeafe" stroke="#94a3b8" stroke-width="2"/><polygon points="1838,1058 1868,1044 1868,1072" fill="#38bdf8"/><rect x="1898" y="998" width="120" height="130" rx="18" fill="#dbeafe" stroke="#94a3b8" stroke-width="2"/><rect x="1940" y="1128" width="36" height="30" rx="8" fill="#bfdbfe" stroke="#94a3b8" stroke-width="2"/><rect x="1912" y="936" width="16" height="76" rx="7" fill="#e2e8f0" stroke="#94a3b8" stroke-width="2"/><circle cx="1920" cy="924" r="6" fill="#22c55e"/><rect x="1940" y="936" width="16" height="76" rx="7" fill="#e2e8f0" stroke="#94a3b8" stroke-width="2"/><circle cx="1948" cy="924" r="6" fill="#22c55e"/><rect x="1968" y="936" width="16" height="76" rx="7" fill="#e2e8f0" stroke="#94a3b8" stroke-width="2"/><circle cx="1976" cy="924" r="6" fill="#22c55e"/><rect x="1996" y="936" width="16" height="76" rx="7" fill="#e2e8f0" stroke="#94a3b8" stroke-width="2"/><circle cx="2004" cy="924" r="6" fill="#22c55e"/><ellipse cx="1886" cy="1054" rx="16" ry="12" fill="#dbeafe" stroke="#94a3b8" stroke-width="2"/><polygon points="1878,1058 1848,1044 1848,1072" fill="#38bdf8"/><text x="40" y="1520" fill="#94a3b8" font-size="18" font-family="Segoe UI, Arial">This is a schematic visual aid based on current code logic (not camera photos).</text></svg>